<?xml version="1.0" encoding="utf-8"?>
<!-- Generator: Adobe Illustrator 24.0.2, SVG Export Plug-In . SVG Version: 6.00 Build 0)  -->
<svg version="1.1" id="Capa_1" xmlns="http://www.w3.org/2000/svg" xmlns:xlink="http://www.w3.org/1999/xlink" x="0px" y="0px"
	 viewBox="0 0 146.99 188.87" style="enable-background:new 0 0 146.99 188.87;" xml:space="preserve">
<style type="text/css">
	.st0{fill:#575757;}
	.st1{fill:#E85335;}
</style>
<g>
	<path class="st0" d="M107.63,69.87c-0.16,10.28,0.64,17.48-1.65,24.11c4.2,4.03,7.38,7.59,7.38,7.59
		c5.36-13.29,4.54-21.99,4.54-40.86c-35.06-1.56-44.43-18.98-44.43-18.98s-9.38,17.42-44.43,18.98c0,26.35,8.04,49.12,18.09,58.72
		c4.13-3.35,6.25-6.25,6.25-6.25S39.75,98.67,39.31,69.87c0,0,19.43-2.68,34.16-14.74C88.21,67.19,107.63,69.87,107.63,69.87z"/>
	<polygon class="st1" points="105.98,114.2 99.73,107.95 73.06,134.62 62.39,123.95 56.14,130.2 73.07,147.13 79.32,140.88 
		79.31,140.87 	"/>
</g>
</svg>
