<?xml version="1.0" encoding="utf-8"?>
<!-- Generator: Adobe Illustrator 26.3.1, SVG Export Plug-In . SVG Version: 6.00 Build 0)  -->
<svg version="1.1" id="Capa_1" xmlns="http://www.w3.org/2000/svg" xmlns:xlink="http://www.w3.org/1999/xlink" x="0px" y="0px"
	 viewBox="0 0 459.89 297.97" style="enable-background:new 0 0 459.89 297.97;" xml:space="preserve">
<style type="text/css">
	.st0{fill:#E73B2C;}
	.st1{fill:url(#SVGID_1_);}
	.st2{fill:url(#SVGID_00000070827167761357888080000011536197953602785422_);}
	.st3{fill:#2C4F9E;}
	.st4{fill:#009FE3;}
	.st5{fill:#2C4F9E;stroke:#009FE3;stroke-width:2;stroke-miterlimit:10;}
</style>
<g>
	<g>
		<path class="st0" d="M265.18,173.45 M255.68,104.09"/>
		<linearGradient id="SVGID_1_" gradientUnits="userSpaceOnUse" x1="301.2727" y1="-18.5794" x2="173.0077" y2="174.2932">
			<stop  offset="0" style="stop-color:#1E3C91"/>
			<stop  offset="0.0784" style="stop-color:#264697"/>
			<stop  offset="0.1764" style="stop-color:#2A4D9C"/>
			<stop  offset="0.2809" style="stop-color:#2C4F9E"/>
			<stop  offset="0.6685" style="stop-color:#4796D2"/>
			<stop  offset="0.8876" style="stop-color:#60C6EF"/>
		</linearGradient>
		<path class="st1" d="M198.8,27.82h-64.41v34.4h23.14V39.15h39.33c75.48,0,111.3,34.27,111.3,84.19c0,28.48-20.9,55.58-35.39,66.98
			c-3.19,7.17-6.8,11.51-16.63,20.05c43.14-14.56,69.37-46,69.37-87.42C325.5,65.01,284.76,27.82,198.8,27.82z"/>
		<g>
			
				<linearGradient id="SVGID_00000010291232666642018980000002569655706023868337_" gradientUnits="userSpaceOnUse" x1="172.1926" y1="97.8007" x2="251.0518" y2="273.5713">
				<stop  offset="0" style="stop-color:#1E3C91"/>
				<stop  offset="0.0784" style="stop-color:#264697"/>
				<stop  offset="0.1764" style="stop-color:#2A4D9C"/>
				<stop  offset="0.2809" style="stop-color:#2C4F9E"/>
				<stop  offset="0.6685" style="stop-color:#4796D2"/>
				<stop  offset="0.8876" style="stop-color:#60C6EF"/>
			</linearGradient>
			<path style="fill:url(#SVGID_00000010291232666642018980000002569655706023868337_);" d="M134.39,67.77h80.48
				c13.41,0,24.48,3.62,33.2,10.84c8.05,6.67,12.07,15.57,12.07,26.68c0,8.9-3.69,16.4-11.07,22.51c-4.02,3.34-9.05,5.84-15.09,7.5
				c8.05,2.23,14.41,5.29,19.11,9.17c8.05,6.67,12.07,15.01,12.07,25.02c0,12.23-5.03,22.52-15.09,30.85
				c-8.05,6.67-20.12,10.01-36.22,10.01h-79.48V67.77z M157.53,83.62v44.2h54.33c6.7,0,12.4-1.94,17.1-5.84
				c5.36-4.44,8.05-10.28,8.05-17.51c0-6.11-2.69-11.39-8.05-15.84c-4.02-3.34-9.05-5-15.09-5H157.53z M157.53,143.66v50.87h51.31
				c10.06,0,17.76-2.22,23.14-6.67c6.04-5,9.05-11.11,9.05-18.35c0-7.78-2.69-13.89-8.05-18.35c-6.04-5-14.08-7.5-24.15-7.5H157.53z
				"/>
		</g>
	</g>
	<g>
		<path class="st3" d="M71.36,246.85H90.1c3.12,0,5.7,0.59,7.73,1.76c1.87,1.08,2.81,2.53,2.81,4.34c0,1.45-0.86,2.67-2.58,3.66
			c-0.94,0.54-2.11,0.95-3.51,1.22c1.87,0.36,3.36,0.86,4.45,1.49c1.87,1.08,2.81,2.44,2.81,4.06c0,1.99-1.17,3.66-3.51,5.01
			c-1.87,1.08-4.68,1.63-8.43,1.63H71.36V246.85z M76.75,249.42v7.18H89.4c1.56,0,2.89-0.32,3.98-0.95
			c1.25-0.72,1.87-1.67,1.87-2.85c0-0.99-0.63-1.85-1.87-2.57c-0.94-0.54-2.11-0.81-3.51-0.81H76.75z M76.75,259.18v8.27H88.7
			c2.34,0,4.14-0.36,5.39-1.08c1.41-0.81,2.11-1.81,2.11-2.98c0-1.26-0.63-2.26-1.87-2.98c-1.41-0.81-3.28-1.22-5.62-1.22H76.75z"/>
		<path class="st3" d="M131.66,246.85h10.54v2.98h-2.58v17.21h2.58v2.98h-10.54v-2.98h2.58v-17.21h-2.58V246.85z"/>
		<path class="st3" d="M172.51,246.85h5.86l18.74,18.29v-18.29h5.39v23.17h-5.86l-18.74-18.29v18.29h-5.39V246.85z"/>
		<path class="st3" d="M234.68,246.85h14.05c4.69,0,8.67,0.95,11.95,2.85c3.43,1.99,5.15,4.97,5.15,8.94c0,3.79-1.8,6.73-5.39,8.81
			c-2.97,1.72-6.87,2.57-11.71,2.57h-14.05V246.85z M240.06,249.42v18.02h8.43c2.96,0,5.39-0.54,7.26-1.63
			c2.96-1.72,4.45-4.11,4.45-7.18c0-3.25-1.41-5.69-4.22-7.32c-2.19-1.26-4.69-1.9-7.5-1.9H240.06z"/>
		<path class="st3" d="M297.55,246.85h25.77v2.58h-20.38v7.18h18.97v2.58h-18.97v8.27h21.55v2.57h-26.94V246.85z"/>
		<path class="st3" d="M352.46,246.71h5.62l12.42,18.84l12.42-18.84h5.62l-15.93,23.44h-4.22L352.46,246.71z"/>
	</g>
	<g>
		<g>
			<line class="st3" x1="68.25" y1="258.88" x2="29.95" y2="258.88"/>
			<polygon class="st4" points="68.25,259.88 29.95,258.88 68.25,257.88 68.25,259.88 			"/>
		</g>
		<line class="st5" x1="167.54" y1="258.88" x2="145.12" y2="258.88"/>
		<line class="st5" x1="228.28" y1="258.88" x2="208.27" y2="258.88"/>
		<line class="st5" x1="352.46" y1="258.88" x2="329.14" y2="258.88"/>
		<g>
			<line class="st3" x1="429.95" y1="258.88" x2="388.53" y2="258.88"/>
			<polygon class="st4" points="429.95,258.88 388.53,259.88 388.53,257.88 429.95,258.88 			"/>
		</g>
		<line class="st5" x1="291.52" y1="258.88" x2="271.91" y2="258.88"/>
		<line class="st5" x1="127.86" y1="258.88" x2="105.5" y2="258.88"/>
	</g>
</g>
</svg>
