<?xml version="1.0" encoding="utf-8"?>
<!-- Generator: Adobe Illustrator 24.0.2, SVG Export Plug-In . SVG Version: 6.00 Build 0)  -->
<svg version="1.1" id="Capa_1" xmlns="http://www.w3.org/2000/svg" xmlns:xlink="http://www.w3.org/1999/xlink" x="0px" y="0px"
	 viewBox="0 0 248.43 99.69" style="enable-background:new 0 0 248.43 99.69;" xml:space="preserve">
<style type="text/css">
	.st0{fill:#575757;}
	.st1{fill:#E85335;}
</style>
<g>
	<g>
		<path class="st0" d="M42.49,47.93V27.97h2.69l10.5,16.2v-16.2h2.43v19.96h-2.69l-10.5-16.2v16.2H42.49z"/>
		<path class="st0" d="M66.59,47.93c-2.91,0-4.37-1.46-4.37-4.37c0-2.91,1.46-4.37,4.37-4.37h5.29v-2.26c0-1.35-0.67-2.02-2.02-2.02
			h-6.19v-1.16l1.16-0.87h5.03c2.89,0,4.34,1.45,4.34,4.34v10.7H66.59z M64.54,43.88c0,1.35,0.67,2.03,2.02,2.03h5.32v-4.69h-5.32
			c-1.35,0-2.02,0.68-2.02,2.02V43.88z"/>
		<path class="st0" d="M78.6,43.59V27.97h2.31v4.92h5.5v2.03h-5.5v8.97c0,1.35,0.67,2.03,2.03,2.03h3.76v1.16l-1.16,0.87h-2.6
			C80.04,47.93,78.6,46.49,78.6,43.59z"/>
		<path class="st0" d="M93.61,47.93c-2.91,0-4.37-1.46-4.37-4.37c0-2.91,1.46-4.37,4.37-4.37h5.29v-2.26c0-1.35-0.67-2.02-2.02-2.02
			h-6.19v-1.16l1.16-0.87h5.03c2.89,0,4.34,1.45,4.34,4.34v10.7H93.61z M91.56,43.88c0,1.35,0.67,2.03,2.02,2.03h5.32v-4.69h-5.32
			c-1.35,0-2.02,0.68-2.02,2.02V43.88z"/>
		<path class="st0" d="M105.62,43.82v-17.3h2.31v17.53c0,1.31,0.67,2.01,2.03,2.08v2.02C107.06,48.16,105.62,46.72,105.62,43.82z"/>
		<path class="st0" d="M113.2,30.17v-2.66h2.43v2.66H113.2z M113.25,47.93V32.89h2.31v15.04H113.25z"/>
		<path class="st0" d="M123.76,47.93c-2.91,0-4.37-1.46-4.37-4.37c0-2.91,1.46-4.37,4.37-4.37h5.29v-2.26
			c0-1.35-0.68-2.02-2.03-2.02h-6.19v-1.16l1.16-0.87h5.03c2.89,0,4.34,1.45,4.34,4.34v10.7H123.76z M121.7,43.88
			c0,1.35,0.67,2.03,2.02,2.03h5.32v-4.69h-5.32c-1.35,0-2.02,0.68-2.02,2.02V43.88z"/>
		<path class="st0" d="M141.08,28.49l0.35-0.52h2.06l5.64,17.76h0.69l5.64-17.76h2.05l0.35,0.52l-6.31,19.44h-4.17L141.08,28.49z"/>
		<path class="st0" d="M160.7,30.17v-2.66h2.43v2.66H160.7z M160.76,47.93V32.89h2.31v15.04H160.76z"/>
		<path class="st0" d="M167.47,43.59v-6.36c0-2.89,1.45-4.34,4.34-4.34h3.76c2.89,0,4.34,1.45,4.34,4.34v4.17h-10.12v2.49
			c0,1.35,0.67,2.03,2.03,2.03h7.52v1.16l-1.16,0.87h-6.36C168.91,47.93,167.47,46.49,167.47,43.59z M169.78,39.37h7.81v-2.43
			c0-1.35-0.68-2.02-2.03-2.02h-3.76c-1.35,0-2.03,0.67-2.03,2.02V39.37z"/>
		<path class="st0" d="M184.19,47.93V34.62c0.67-1.16,1.93-1.74,3.76-1.74h2.89l1.16,0.87v1.16h-4.05c-0.65,0-1.14,0.17-1.45,0.52
			v12.5H184.19z"/>
		<path class="st0" d="M198.33,47.93c-2.91,0-4.37-1.46-4.37-4.37c0-2.91,1.46-4.37,4.37-4.37h5.3v-2.26c0-1.35-0.68-2.02-2.03-2.02
			h-6.19v-1.16l1.16-0.87h5.03c2.89,0,4.34,1.45,4.34,4.34v10.7H198.33z M196.28,43.88c0,1.35,0.67,2.03,2.03,2.03h5.32v-4.69h-5.32
			c-1.35,0-2.03,0.68-2.03,2.02V43.88z"/>
	</g>
	<g>
		<path class="st1" d="M44.08,69.62l0.47-2.2h6.03c0.2,0,0.35-0.04,0.44-0.12c0.09-0.08,0.16-0.22,0.21-0.43l0.33-1.57
			c0.01-0.04,0.02-0.11,0.02-0.18c0-0.2-0.14-0.3-0.43-0.3h-4.46c-0.46,0-0.79-0.1-0.99-0.29c-0.21-0.19-0.31-0.47-0.31-0.83
			c0-0.13,0.02-0.3,0.05-0.48l0.62-2.92c0.14-0.67,0.39-1.16,0.73-1.49c0.34-0.32,0.88-0.48,1.62-0.48h7.03l-0.45,2.15h-5.99
			c-0.18,0-0.31,0.04-0.38,0.12c-0.08,0.08-0.14,0.22-0.18,0.42l-0.32,1.49c-0.01,0.05-0.02,0.08-0.02,0.12
			c-0.01,0.03-0.01,0.07-0.01,0.1c0,0.17,0.12,0.25,0.37,0.25h4.52c0.47,0,0.8,0.1,1.01,0.3c0.21,0.2,0.31,0.48,0.31,0.83
			c0,0.14-0.02,0.3-0.05,0.47l-0.65,3.09c-0.14,0.67-0.39,1.16-0.73,1.49c-0.34,0.32-0.88,0.48-1.6,0.48H44.08z"/>
		<path class="st1" d="M56.34,69.62c-0.48,0-0.82-0.08-1.03-0.24C55.11,69.22,55,68.97,55,68.62c0-0.16,0.03-0.37,0.08-0.65
			l1.08-5.14c0.12-0.57,0.33-0.99,0.61-1.25c0.28-0.27,0.73-0.4,1.34-0.4h5.71c0.42,0,0.73,0.08,0.91,0.24
			c0.18,0.16,0.28,0.4,0.28,0.73c0,0.2-0.02,0.41-0.07,0.62l-0.7,3.32h-5.63l0.28-1.4h3.41l0.25-1.14c0.01-0.06,0.02-0.13,0.02-0.22
			s-0.03-0.15-0.07-0.18c-0.05-0.03-0.14-0.05-0.28-0.05h-3.36c-0.19,0-0.32,0.03-0.38,0.09s-0.12,0.19-0.17,0.38l-0.78,3.64
			c-0.01,0.06-0.02,0.1-0.02,0.14c-0.01,0.04-0.01,0.08-0.01,0.11c0,0.1,0.03,0.17,0.08,0.2s0.16,0.05,0.3,0.05h5.69l-0.4,1.92
			H56.34z"/>
		<path class="st1" d="M64.59,73.16l0.43-2.02h5.64c0.19,0,0.32-0.03,0.39-0.1c0.07-0.07,0.13-0.19,0.18-0.38l1.59-7.46h-3.64
			c-0.19,0-0.32,0.03-0.39,0.1c-0.07,0.07-0.12,0.19-0.16,0.37l-0.77,3.61c-0.01,0.06-0.02,0.12-0.02,0.18
			c0,0.18,0.13,0.27,0.38,0.27h2.81l-0.4,1.9h-4.01c-0.47,0-0.8-0.08-1.01-0.24c-0.21-0.16-0.31-0.41-0.31-0.76
			c0-0.16,0.03-0.37,0.08-0.65l1.09-5.14c0.12-0.57,0.33-0.99,0.61-1.25c0.28-0.27,0.73-0.4,1.33-0.4h7.18l-2.2,10.33
			c-0.12,0.57-0.33,0.99-0.61,1.25c-0.28,0.27-0.73,0.4-1.34,0.4H64.59z"/>
		<path class="st1" d="M82.12,69.62l0.18-0.9c-0.21,0.32-0.45,0.55-0.71,0.69c-0.26,0.14-0.57,0.21-0.93,0.21h-3.67
			c-0.45,0-0.78-0.08-0.99-0.23c-0.22-0.16-0.33-0.42-0.33-0.78c0-0.17,0.03-0.38,0.08-0.63l1.44-6.79h2.34l-1.27,5.96
			c-0.02,0.11-0.03,0.18-0.03,0.22c0,0.18,0.13,0.27,0.4,0.27h3.36c0.18,0,0.31-0.03,0.38-0.1c0.08-0.07,0.14-0.19,0.18-0.38
			l1.27-5.96h2.34l-1.79,8.45H82.12z"/>
		<path class="st1" d="M86.09,69.62l1.79-8.45h2.27l-0.2,0.92c0.21-0.32,0.45-0.56,0.71-0.7c0.26-0.14,0.58-0.22,0.94-0.22h2.45
			l-0.43,2.02h-3.37c-0.17,0-0.29,0.03-0.38,0.09c-0.08,0.06-0.15,0.19-0.19,0.38l-1.25,5.96H86.09z"/>
		<path class="st1" d="M93.71,69.62l1.79-8.45h2.34l-1.79,8.45H93.71z M95.71,60.17l0.53-2.54h2.35l-0.53,2.54H95.71z"/>
		<path class="st1" d="M99.4,69.62c-0.47,0-0.8-0.08-1.01-0.24c-0.21-0.16-0.31-0.41-0.31-0.76c0-0.16,0.03-0.37,0.08-0.65
			l1.09-5.14c0.12-0.57,0.34-0.99,0.66-1.25c0.32-0.27,0.74-0.4,1.28-0.4h3.99l-0.43,2.02h-2.79c-0.18,0-0.3,0.03-0.38,0.09
			c-0.07,0.06-0.13,0.19-0.18,0.38l-0.72,3.42c-0.02,0.11-0.03,0.18-0.03,0.22c0,0.17,0.13,0.25,0.38,0.25h3.62l2.1-9.92h2.35
			l-2.54,11.99H99.4z"/>
		<path class="st1" d="M109.78,69.62c-0.42,0-0.73-0.08-0.92-0.24c-0.19-0.16-0.28-0.4-0.28-0.73c0-0.16,0.03-0.36,0.08-0.62l0.42-2
			c0.07-0.31,0.14-0.57,0.23-0.78c0.09-0.21,0.2-0.38,0.33-0.5s0.3-0.21,0.48-0.26c0.19-0.05,0.42-0.08,0.68-0.08h4.29l-0.3,1.44
			h-3.07c-0.16,0-0.27,0.03-0.33,0.08c-0.07,0.06-0.12,0.17-0.15,0.35l-0.18,0.88c-0.01,0.06-0.02,0.1-0.03,0.13
			c-0.01,0.03-0.01,0.07-0.01,0.1c0,0.14,0.11,0.22,0.32,0.22h3.91l0.89-4.14c0.01-0.04,0.02-0.11,0.02-0.18
			c0-0.09-0.03-0.16-0.08-0.21c-0.06-0.05-0.16-0.07-0.32-0.07h-5.73l0.38-1.84h6.91c0.49,0,0.84,0.08,1.04,0.24
			c0.2,0.16,0.3,0.41,0.3,0.76c0,0.16-0.03,0.37-0.08,0.65l-1.44,6.79H109.78z"/>
		<path class="st1" d="M120.4,69.62c-0.47,0-0.8-0.08-1.01-0.24c-0.21-0.16-0.31-0.41-0.31-0.76c0-0.16,0.03-0.37,0.08-0.65
			l1.09-5.14c0.12-0.57,0.34-0.99,0.66-1.25c0.32-0.27,0.74-0.4,1.28-0.4h3.99l-0.43,2.02h-2.79c-0.18,0-0.3,0.03-0.38,0.09
			c-0.07,0.06-0.13,0.19-0.18,0.38l-0.72,3.42c-0.02,0.11-0.03,0.18-0.03,0.22c0,0.17,0.13,0.25,0.38,0.25h3.62l2.11-9.92h2.35
			l-2.54,11.99H120.4z"/>
		<path class="st1" d="M135.85,69.62c-0.57,0-0.97-0.1-1.22-0.3c-0.24-0.2-0.37-0.51-0.37-0.93c0-0.11,0.01-0.23,0.02-0.34
			c0.01-0.12,0.03-0.25,0.07-0.39l1.55-7.36c0.14-0.67,0.39-1.16,0.74-1.49c0.35-0.32,0.88-0.48,1.59-0.48h6.36l-0.47,2.25h-5.11
			c-0.27,0-0.45,0.04-0.54,0.13c-0.09,0.08-0.17,0.25-0.23,0.51l-1.19,5.51c-0.01,0.06-0.02,0.1-0.02,0.14s-0.01,0.08-0.01,0.12
			c0,0.12,0.04,0.21,0.12,0.27c0.08,0.06,0.22,0.08,0.43,0.08h5.14l-0.49,2.29H135.85z"/>
		<path class="st1" d="M145.28,69.62c-0.47,0-0.81-0.08-1.01-0.24c-0.21-0.16-0.31-0.41-0.31-0.76c0-0.16,0.03-0.37,0.08-0.65
			l1.09-5.14c0.12-0.57,0.33-0.99,0.61-1.25c0.28-0.27,0.73-0.4,1.33-0.4h5.74c0.49,0,0.84,0.08,1.04,0.24
			c0.2,0.16,0.3,0.41,0.3,0.76c0,0.16-0.03,0.37-0.08,0.65l-1.08,5.14c-0.12,0.57-0.33,0.99-0.61,1.25c-0.28,0.27-0.73,0.4-1.34,0.4
			H145.28z M151.54,63.66c0.02-0.11,0.03-0.18,0.03-0.2c0-0.18-0.15-0.27-0.45-0.27h-3.31c-0.18,0-0.3,0.03-0.38,0.09
			c-0.07,0.06-0.12,0.19-0.16,0.38l-0.72,3.44c-0.01,0.05-0.02,0.08-0.02,0.12c-0.01,0.03-0.01,0.07-0.01,0.1
			c0,0.16,0.12,0.23,0.37,0.23h3.31c0.2,0,0.34-0.03,0.43-0.1c0.09-0.07,0.15-0.18,0.18-0.35L151.54,63.66z"/>
		<path class="st1" d="M154.29,69.62l1.79-8.45h2.27l-0.2,0.92c0.21-0.32,0.45-0.56,0.71-0.7s0.58-0.22,0.94-0.22h2.46l-0.43,2.02
			h-3.37c-0.17,0-0.29,0.03-0.38,0.09c-0.08,0.06-0.15,0.19-0.19,0.38l-1.25,5.96H154.29z"/>
		<path class="st1" d="M165.01,69.62l0.42-2h2.8c0.17,0,0.29-0.03,0.36-0.09c0.07-0.06,0.13-0.19,0.18-0.38l0.73-3.42
			c0.01-0.06,0.02-0.13,0.02-0.22c0-0.1-0.02-0.17-0.07-0.21c-0.05-0.04-0.14-0.06-0.28-0.06h-3.64l-2.12,9.92h-2.34l2.55-11.99
			h7.15c0.49,0,0.84,0.08,1.04,0.25c0.2,0.17,0.3,0.42,0.3,0.77c0,0.21-0.02,0.42-0.07,0.64l-1.08,5.14c-0.12,0.58-0.35,1-0.68,1.26
			c-0.33,0.26-0.76,0.39-1.29,0.39H165.01z"/>
		<path class="st1" d="M173.8,69.62c-0.47,0-0.81-0.08-1.01-0.24c-0.21-0.16-0.31-0.41-0.31-0.76c0-0.16,0.03-0.37,0.08-0.65
			l1.09-5.14c0.12-0.57,0.33-0.99,0.61-1.25c0.28-0.27,0.73-0.4,1.33-0.4h5.74c0.49,0,0.84,0.08,1.04,0.24
			c0.2,0.16,0.3,0.41,0.3,0.76c0,0.16-0.03,0.37-0.08,0.65l-1.08,5.14c-0.12,0.57-0.33,0.99-0.61,1.25c-0.28,0.27-0.73,0.4-1.34,0.4
			H173.8z M180.06,63.66c0.02-0.11,0.03-0.18,0.03-0.2c0-0.18-0.15-0.27-0.45-0.27h-3.31c-0.18,0-0.3,0.03-0.38,0.09
			c-0.07,0.06-0.12,0.19-0.16,0.38l-0.72,3.44c-0.01,0.05-0.02,0.08-0.02,0.12c-0.01,0.03-0.01,0.07-0.01,0.1
			c0,0.16,0.12,0.23,0.37,0.23h3.31c0.2,0,0.34-0.03,0.43-0.1c0.09-0.07,0.15-0.18,0.18-0.35L180.06,63.66z"/>
		<path class="st1" d="M182.81,69.62l1.79-8.45h2.27l-0.2,0.92c0.21-0.32,0.45-0.56,0.71-0.7s0.58-0.22,0.94-0.22h2.46l-0.43,2.02
			h-3.37c-0.17,0-0.29,0.03-0.38,0.09c-0.08,0.06-0.15,0.19-0.19,0.38l-1.25,5.96H182.81z"/>
		<path class="st1" d="M191.53,69.62c-0.42,0-0.73-0.08-0.92-0.24c-0.19-0.16-0.28-0.4-0.28-0.73c0-0.16,0.03-0.36,0.08-0.62l0.42-2
			c0.07-0.31,0.14-0.57,0.23-0.78c0.09-0.21,0.2-0.38,0.33-0.5s0.29-0.21,0.48-0.26c0.19-0.05,0.42-0.08,0.68-0.08h4.29l-0.3,1.44
			h-3.07c-0.16,0-0.27,0.03-0.33,0.08c-0.07,0.06-0.12,0.17-0.15,0.35l-0.18,0.88c-0.01,0.06-0.02,0.1-0.03,0.13
			c-0.01,0.03-0.01,0.07-0.01,0.1c0,0.14,0.11,0.22,0.32,0.22H197l0.89-4.14c0.01-0.04,0.02-0.11,0.02-0.18
			c0-0.09-0.03-0.16-0.08-0.21c-0.06-0.05-0.16-0.07-0.32-0.07h-5.73l0.38-1.84h6.91c0.49,0,0.84,0.08,1.03,0.24
			c0.2,0.16,0.3,0.41,0.3,0.76c0,0.16-0.03,0.37-0.08,0.65l-1.44,6.79H191.53z"/>
		<path class="st1" d="M200.64,69.62l2.54-11.99h2.34l-2.54,11.99H200.64z"/>
	</g>
</g>
</svg>
