<?xml version="1.0" encoding="utf-8"?>
<!-- Generator: Adobe Illustrator 24.0.2, SVG Export Plug-In . SVG Version: 6.00 Build 0)  -->
<svg version="1.1" id="Capa_1" xmlns="http://www.w3.org/2000/svg" xmlns:xlink="http://www.w3.org/1999/xlink" x="0px" y="0px"
	 viewBox="0 0 146.99 188.87" style="enable-background:new 0 0 146.99 188.87;" xml:space="preserve">
<style type="text/css">
	.st0{fill:#575757;}
	.st1{fill:#E85335;}
</style>
<g>
	<g>
		<g>
			<path class="st0" d="M107.63,50.65c-0.16,10.28,0.64,17.48-1.65,24.11c4.2,4.03,7.38,7.59,7.38,7.59
				c5.36-13.29,4.54-21.99,4.54-40.86c-35.06-1.56-44.43-18.98-44.43-18.98s-9.38,17.42-44.43,18.98c0,26.35,8.04,49.12,18.09,58.72
				c4.13-3.35,6.25-6.25,6.25-6.25S39.75,79.45,39.31,50.65c0,0,19.43-2.68,34.16-14.74C88.21,47.97,107.63,50.65,107.63,50.65z"/>
		</g>
		<g>
			<polygon class="st1" points="105.98,94.98 99.73,88.73 73.06,115.4 62.39,104.73 56.14,110.98 73.07,127.91 79.32,121.66 
				79.31,121.65 			"/>
		</g>
	</g>
	<g>
		<path class="st0" d="M27.55,151.72v-11.25h1.52l5.92,9.13v-9.13h1.37v11.25h-1.52l-5.92-9.13v9.13H27.55z"/>
		<path class="st0" d="M41.13,151.72c-1.64,0-2.46-0.82-2.46-2.46c0-1.64,0.82-2.46,2.46-2.46h2.98v-1.27
			c0-0.76-0.38-1.14-1.14-1.14h-3.49v-0.65l0.65-0.49h2.84c1.63,0,2.45,0.82,2.45,2.45v6.03H41.13z M39.97,149.44
			c0,0.76,0.38,1.14,1.14,1.14h3v-2.64h-3c-0.76,0-1.14,0.38-1.14,1.14V149.44z"/>
		<path class="st0" d="M47.89,149.27v-8.8h1.3v2.77h3.1v1.14h-3.1v5.05c0,0.76,0.38,1.14,1.14,1.14h2.12v0.65l-0.65,0.49h-1.47
			C48.71,151.72,47.89,150.9,47.89,149.27z"/>
		<path class="st0" d="M56.36,151.72c-1.64,0-2.46-0.82-2.46-2.46c0-1.64,0.82-2.46,2.46-2.46h2.98v-1.27
			c0-0.76-0.38-1.14-1.14-1.14h-3.49v-0.65l0.65-0.49h2.84c1.63,0,2.45,0.82,2.45,2.45v6.03H56.36z M55.2,149.44
			c0,0.76,0.38,1.14,1.14,1.14h3v-2.64h-3c-0.76,0-1.14,0.38-1.14,1.14V149.44z"/>
		<path class="st0" d="M63.12,149.4v-9.75h1.3v9.88c0,0.74,0.38,1.13,1.14,1.17v1.14C63.94,151.85,63.12,151.04,63.12,149.4z"/>
		<path class="st0" d="M67.4,141.71v-1.5h1.37v1.5H67.4z M67.43,151.72v-8.48h1.3v8.48H67.43z"/>
		<path class="st0" d="M73.35,151.72c-1.64,0-2.46-0.82-2.46-2.46c0-1.64,0.82-2.46,2.46-2.46h2.98v-1.27
			c0-0.76-0.38-1.14-1.14-1.14H71.7v-0.65l0.65-0.49h2.84c1.63,0,2.45,0.82,2.45,2.45v6.03H73.35z M72.19,149.44
			c0,0.76,0.38,1.14,1.14,1.14h3v-2.64h-3c-0.76,0-1.14,0.38-1.14,1.14V149.44z"/>
		<path class="st0" d="M83.11,140.76l0.2-0.29h1.16l3.18,10.01h0.39l3.18-10.01h1.16l0.2,0.29l-3.55,10.96h-2.35L83.11,140.76z"/>
		<path class="st0" d="M94.17,141.71v-1.5h1.37v1.5H94.17z M94.2,151.72v-8.48h1.3v8.48H94.2z"/>
		<path class="st0" d="M97.98,149.27v-3.59c0-1.63,0.82-2.45,2.45-2.45h2.12c1.63,0,2.45,0.82,2.45,2.45v2.35h-5.71v1.4
			c0,0.76,0.38,1.14,1.14,1.14h4.24v0.65l-0.65,0.49h-3.59C98.8,151.72,97.98,150.9,97.98,149.27z M99.29,146.89h4.4v-1.37
			c0-0.76-0.38-1.14-1.14-1.14h-2.12c-0.76,0-1.14,0.38-1.14,1.14V146.89z"/>
		<path class="st0" d="M107.41,151.72v-7.5c0.38-0.65,1.09-0.98,2.12-0.98h1.63l0.65,0.49v0.65h-2.28c-0.37,0-0.64,0.1-0.81,0.29
			v7.04H107.41z"/>
		<path class="st0" d="M115.38,151.72c-1.64,0-2.46-0.82-2.46-2.46c0-1.64,0.82-2.46,2.46-2.46h2.98v-1.27
			c0-0.76-0.38-1.14-1.14-1.14h-3.49v-0.65l0.65-0.49h2.84c1.63,0,2.45,0.82,2.45,2.45v6.03H115.38z M114.22,149.44
			c0,0.76,0.38,1.14,1.14,1.14h3v-2.64h-3c-0.76,0-1.14,0.38-1.14,1.14V149.44z"/>
	</g>
	<g>
		<path class="st1" d="M28.44,163.94l0.26-1.24h3.4c0.11,0,0.2-0.02,0.25-0.07s0.09-0.13,0.12-0.25l0.19-0.88
			c0.01-0.03,0.01-0.06,0.01-0.1c0-0.11-0.08-0.17-0.24-0.17h-2.51c-0.26,0-0.44-0.05-0.56-0.16c-0.12-0.11-0.17-0.27-0.17-0.47
			c0-0.08,0.01-0.17,0.03-0.27l0.35-1.65c0.08-0.38,0.22-0.66,0.41-0.84c0.19-0.18,0.5-0.27,0.91-0.27h3.96l-0.25,1.21h-3.38
			c-0.1,0-0.17,0.02-0.22,0.07c-0.04,0.04-0.08,0.12-0.1,0.24l-0.18,0.84c-0.01,0.03-0.01,0.05-0.01,0.07c0,0.02,0,0.04,0,0.06
			c0,0.09,0.07,0.14,0.21,0.14h2.55c0.26,0,0.45,0.06,0.57,0.17s0.17,0.27,0.17,0.47c0,0.08-0.01,0.17-0.03,0.26l-0.37,1.74
			c-0.08,0.38-0.22,0.66-0.41,0.84c-0.19,0.18-0.5,0.27-0.9,0.27H28.44z"/>
		<path class="st1" d="M35.35,163.94c-0.27,0-0.46-0.04-0.58-0.14c-0.12-0.09-0.17-0.23-0.17-0.43c0-0.09,0.02-0.21,0.05-0.37
			l0.61-2.9c0.07-0.32,0.18-0.56,0.34-0.71c0.16-0.15,0.41-0.23,0.76-0.23h3.22c0.24,0,0.41,0.04,0.51,0.14
			c0.1,0.09,0.16,0.23,0.16,0.41c0,0.11-0.01,0.23-0.04,0.35l-0.4,1.87h-3.17l0.16-0.79h1.92l0.14-0.64
			c0.01-0.03,0.01-0.07,0.01-0.12c0-0.05-0.01-0.08-0.04-0.1c-0.03-0.02-0.08-0.03-0.16-0.03h-1.89c-0.11,0-0.18,0.02-0.22,0.05
			c-0.04,0.03-0.07,0.1-0.09,0.21l-0.44,2.05c-0.01,0.03-0.01,0.06-0.01,0.08c0,0.02,0,0.04,0,0.06c0,0.06,0.02,0.09,0.05,0.11
			c0.03,0.02,0.09,0.03,0.17,0.03h3.21l-0.23,1.08H35.35z"/>
		<path class="st1" d="M40,165.94l0.24-1.14h3.18c0.11,0,0.18-0.02,0.22-0.06c0.04-0.04,0.07-0.11,0.1-0.22l0.89-4.21h-2.05
			c-0.11,0-0.18,0.02-0.22,0.06c-0.04,0.04-0.07,0.11-0.09,0.21l-0.43,2.03c-0.01,0.03-0.01,0.07-0.01,0.1
			c0,0.1,0.07,0.15,0.22,0.15h1.58l-0.23,1.07h-2.26c-0.26,0-0.45-0.04-0.57-0.14c-0.12-0.09-0.17-0.23-0.17-0.43
			c0-0.09,0.02-0.21,0.05-0.37l0.61-2.9c0.07-0.32,0.18-0.56,0.34-0.71c0.16-0.15,0.41-0.23,0.75-0.23h4.05l-1.24,5.82
			c-0.07,0.32-0.18,0.56-0.34,0.71c-0.16,0.15-0.41,0.23-0.76,0.23H40z"/>
		<path class="st1" d="M49.88,163.94l0.1-0.51c-0.12,0.18-0.25,0.31-0.4,0.39s-0.32,0.12-0.52,0.12h-2.07
			c-0.25,0-0.44-0.04-0.56-0.13c-0.12-0.09-0.18-0.24-0.18-0.44c0-0.09,0.02-0.21,0.05-0.36l0.81-3.83h1.32l-0.72,3.36
			c-0.01,0.06-0.02,0.1-0.02,0.12c0,0.1,0.08,0.15,0.23,0.15h1.89c0.1,0,0.17-0.02,0.22-0.06c0.04-0.04,0.08-0.11,0.1-0.22
			l0.72-3.36h1.32l-1.01,4.76H49.88z"/>
		<path class="st1" d="M52.12,163.94l1.01-4.76h1.28l-0.11,0.52c0.12-0.18,0.25-0.31,0.4-0.4c0.15-0.08,0.32-0.12,0.53-0.12h1.38
			l-0.24,1.14h-1.9c-0.09,0-0.16,0.02-0.21,0.05c-0.05,0.03-0.08,0.1-0.11,0.21l-0.71,3.36H52.12z"/>
		<path class="st1" d="M56.41,163.94l1.01-4.76h1.32l-1.01,4.76H56.41z M57.54,158.62l0.3-1.43h1.33l-0.3,1.43H57.54z"/>
		<path class="st1" d="M59.62,163.94c-0.26,0-0.45-0.04-0.57-0.14c-0.12-0.09-0.17-0.23-0.17-0.43c0-0.09,0.02-0.21,0.05-0.37
			l0.61-2.9c0.07-0.32,0.19-0.56,0.37-0.71s0.42-0.23,0.72-0.23h2.25l-0.24,1.14h-1.57c-0.1,0-0.17,0.02-0.21,0.05
			c-0.04,0.03-0.07,0.1-0.1,0.21l-0.4,1.93c-0.01,0.06-0.02,0.1-0.02,0.12c0,0.09,0.07,0.14,0.22,0.14h2.04l1.19-5.59h1.33
			l-1.43,6.76H59.62z"/>
		<path class="st1" d="M65.47,163.94c-0.24,0-0.41-0.04-0.52-0.14c-0.11-0.09-0.16-0.23-0.16-0.41c0-0.09,0.02-0.2,0.05-0.35
			l0.24-1.13c0.04-0.18,0.08-0.32,0.13-0.44s0.11-0.21,0.19-0.28c0.08-0.07,0.17-0.12,0.27-0.15s0.24-0.04,0.39-0.04h2.42
			l-0.17,0.81h-1.73c-0.09,0-0.15,0.02-0.19,0.05s-0.07,0.1-0.08,0.2l-0.1,0.5c-0.01,0.03-0.01,0.06-0.01,0.08c0,0.02,0,0.04,0,0.06
			c0,0.08,0.06,0.12,0.18,0.12h2.2l0.5-2.33c0.01-0.02,0.01-0.06,0.01-0.1c0-0.05-0.02-0.09-0.05-0.12
			c-0.03-0.03-0.09-0.04-0.18-0.04h-3.23l0.22-1.04h3.9c0.28,0,0.47,0.04,0.58,0.14c0.11,0.09,0.17,0.23,0.17,0.43
			c0,0.09-0.02,0.21-0.05,0.37l-0.81,3.83H65.47z"/>
		<path class="st1" d="M71.46,163.94c-0.26,0-0.45-0.04-0.57-0.14c-0.12-0.09-0.17-0.23-0.17-0.43c0-0.09,0.02-0.21,0.05-0.37
			l0.61-2.9c0.07-0.32,0.19-0.56,0.37-0.71s0.42-0.23,0.72-0.23h2.25l-0.24,1.14H72.9c-0.1,0-0.17,0.02-0.21,0.05
			c-0.04,0.03-0.07,0.1-0.1,0.21l-0.4,1.93c-0.01,0.06-0.02,0.1-0.02,0.12c0,0.09,0.07,0.14,0.22,0.14h2.04l1.19-5.59h1.33
			l-1.43,6.76H71.46z"/>
		<path class="st1" d="M80.16,163.94c-0.32,0-0.55-0.06-0.69-0.17c-0.14-0.11-0.21-0.29-0.21-0.53c0-0.06,0-0.13,0.01-0.19
			c0.01-0.07,0.02-0.14,0.04-0.22l0.88-4.15c0.08-0.38,0.22-0.66,0.42-0.84c0.2-0.18,0.5-0.27,0.9-0.27h3.58l-0.26,1.27h-2.88
			c-0.15,0-0.25,0.02-0.31,0.07c-0.05,0.05-0.1,0.14-0.13,0.29l-0.67,3.11c-0.01,0.03-0.01,0.06-0.01,0.08c0,0.02,0,0.04,0,0.07
			c0,0.07,0.02,0.12,0.07,0.15s0.13,0.05,0.25,0.05h2.9l-0.27,1.29H80.16z"/>
		<path class="st1" d="M85.48,163.94c-0.26,0-0.45-0.04-0.57-0.14c-0.12-0.09-0.17-0.23-0.17-0.43c0-0.09,0.02-0.21,0.05-0.37
			l0.61-2.9c0.07-0.32,0.18-0.56,0.34-0.71c0.16-0.15,0.41-0.23,0.75-0.23h3.24c0.28,0,0.47,0.04,0.58,0.14
			c0.11,0.09,0.17,0.23,0.17,0.43c0,0.09-0.02,0.21-0.05,0.37l-0.61,2.9c-0.07,0.32-0.18,0.56-0.34,0.71s-0.41,0.23-0.76,0.23H85.48
			z M89.01,160.59c0.01-0.06,0.02-0.1,0.02-0.11c0-0.1-0.08-0.15-0.25-0.15h-1.86c-0.1,0-0.17,0.02-0.21,0.05
			c-0.04,0.03-0.07,0.1-0.09,0.21l-0.41,1.94c-0.01,0.03-0.01,0.05-0.01,0.07c0,0.02,0,0.04,0,0.06c0,0.09,0.07,0.13,0.21,0.13h1.86
			c0.11,0,0.19-0.02,0.25-0.06c0.05-0.04,0.08-0.1,0.1-0.2L89.01,160.59z"/>
		<path class="st1" d="M90.56,163.94l1.01-4.76h1.28l-0.11,0.52c0.12-0.18,0.25-0.31,0.4-0.4c0.15-0.08,0.32-0.12,0.53-0.12h1.38
			l-0.25,1.14h-1.9c-0.09,0-0.17,0.02-0.21,0.05c-0.05,0.03-0.08,0.1-0.11,0.21l-0.71,3.36H90.56z"/>
		<path class="st1" d="M96.6,163.94l0.24-1.13h1.58c0.09,0,0.16-0.02,0.2-0.05c0.04-0.03,0.07-0.11,0.1-0.21l0.41-1.93
			c0.01-0.03,0.01-0.07,0.01-0.12c0-0.06-0.01-0.1-0.04-0.12c-0.03-0.02-0.08-0.03-0.16-0.03h-2.05l-1.2,5.59h-1.32l1.44-6.76h4.03
			c0.28,0,0.47,0.05,0.58,0.14c0.11,0.09,0.17,0.24,0.17,0.43c0,0.12-0.01,0.24-0.04,0.36l-0.61,2.9c-0.07,0.33-0.2,0.56-0.38,0.71
			c-0.19,0.15-0.43,0.22-0.73,0.22H96.6z"/>
		<path class="st1" d="M101.55,163.94c-0.26,0-0.45-0.04-0.57-0.14c-0.12-0.09-0.17-0.23-0.17-0.43c0-0.09,0.02-0.21,0.05-0.37
			l0.61-2.9c0.07-0.32,0.18-0.56,0.34-0.71c0.16-0.15,0.41-0.23,0.75-0.23h3.24c0.28,0,0.47,0.04,0.58,0.14
			c0.11,0.09,0.17,0.23,0.17,0.43c0,0.09-0.02,0.21-0.05,0.37l-0.61,2.9c-0.07,0.32-0.18,0.56-0.34,0.71s-0.41,0.23-0.76,0.23
			H101.55z M105.08,160.59c0.01-0.06,0.02-0.1,0.02-0.11c0-0.1-0.08-0.15-0.25-0.15h-1.86c-0.1,0-0.17,0.02-0.21,0.05
			c-0.04,0.03-0.07,0.1-0.09,0.21l-0.41,1.94c-0.01,0.03-0.01,0.05-0.01,0.07c0,0.02,0,0.04,0,0.06c0,0.09,0.07,0.13,0.21,0.13h1.86
			c0.11,0,0.19-0.02,0.25-0.06c0.05-0.04,0.08-0.1,0.1-0.2L105.08,160.59z"/>
		<path class="st1" d="M106.63,163.94l1.01-4.76h1.28l-0.11,0.52c0.12-0.18,0.25-0.31,0.4-0.4c0.15-0.08,0.32-0.12,0.53-0.12h1.38
			l-0.25,1.14h-1.9c-0.09,0-0.17,0.02-0.21,0.05c-0.05,0.03-0.08,0.1-0.11,0.21l-0.71,3.36H106.63z"/>
		<path class="st1" d="M111.54,163.94c-0.24,0-0.41-0.04-0.52-0.14c-0.11-0.09-0.16-0.23-0.16-0.41c0-0.09,0.02-0.2,0.05-0.35
			l0.24-1.13c0.04-0.18,0.08-0.32,0.13-0.44c0.05-0.12,0.11-0.21,0.19-0.28c0.08-0.07,0.17-0.12,0.27-0.15s0.24-0.04,0.39-0.04h2.42
			l-0.17,0.81h-1.73c-0.09,0-0.15,0.02-0.19,0.05c-0.04,0.03-0.07,0.1-0.08,0.2l-0.1,0.5c-0.01,0.03-0.01,0.06-0.01,0.08
			s0,0.04,0,0.06c0,0.08,0.06,0.12,0.18,0.12h2.2l0.5-2.33c0.01-0.02,0.01-0.06,0.01-0.1c0-0.05-0.02-0.09-0.05-0.12
			s-0.09-0.04-0.18-0.04h-3.23l0.22-1.04h3.9c0.28,0,0.47,0.04,0.58,0.14c0.11,0.09,0.17,0.23,0.17,0.43c0,0.09-0.02,0.21-0.05,0.37
			l-0.81,3.83H111.54z"/>
		<path class="st1" d="M116.68,163.94l1.43-6.76h1.32l-1.43,6.76H116.68z"/>
	</g>
</g>
</svg>
