<?xml version="1.0" encoding="utf-8"?>
<!-- Generator: Adobe Illustrator 24.0.2, SVG Export Plug-In . SVG Version: 6.00 Build 0)  -->
<svg version="1.1" id="Capa_1" xmlns="http://www.w3.org/2000/svg" xmlns:xlink="http://www.w3.org/1999/xlink" x="0px" y="0px"
	 viewBox="0 0 248.43 99.69" style="enable-background:new 0 0 248.43 99.69;" xml:space="preserve">
<style type="text/css">
	.st0{fill:#575757;}
	.st1{fill:#E85335;}
</style>
<g>
	<g>
		<path class="st0" d="M37.39,43.51V29.18h1.93l7.54,11.63V29.18h1.74v14.33h-1.93l-7.54-11.63v11.63H37.39z"/>
		<path class="st0" d="M54.69,43.51c-2.09,0-3.14-1.04-3.14-3.14s1.04-3.14,3.14-3.14h3.8v-1.62c0-0.97-0.49-1.45-1.45-1.45H52.6
			v-0.83l0.83-0.62h3.61c2.08,0,3.12,1.04,3.12,3.12v7.68H54.69z M53.22,40.6c0,0.97,0.48,1.45,1.45,1.45h3.82v-3.36h-3.82
			c-0.97,0-1.45,0.48-1.45,1.45V40.6z"/>
		<path class="st0" d="M63.31,40.39V29.18h1.66v3.53h3.95v1.45h-3.95v6.44c0,0.97,0.48,1.45,1.45,1.45h2.7v0.83l-0.83,0.62h-1.87
			C64.35,43.51,63.31,42.47,63.31,40.39z"/>
		<path class="st0" d="M74.09,43.51c-2.09,0-3.14-1.04-3.14-3.14s1.04-3.14,3.14-3.14h3.8v-1.62c0-0.97-0.49-1.45-1.45-1.45h-4.44
			v-0.83l0.83-0.62h3.61c2.08,0,3.12,1.04,3.12,3.12v7.68H74.09z M72.62,40.6c0,0.97,0.48,1.45,1.45,1.45h3.82v-3.36h-3.82
			c-0.97,0-1.45,0.48-1.45,1.45V40.6z"/>
		<path class="st0" d="M82.71,40.56V28.14h1.66v12.59c0,0.94,0.48,1.44,1.45,1.5v1.45C83.75,43.68,82.71,42.64,82.71,40.56z"/>
		<path class="st0" d="M88.15,30.76v-1.91h1.74v1.91H88.15z M88.19,43.51v-10.8h1.66v10.8H88.19z"/>
		<path class="st0" d="M95.73,43.51c-2.09,0-3.14-1.04-3.14-3.14s1.04-3.14,3.14-3.14h3.8v-1.62c0-0.97-0.48-1.45-1.45-1.45h-4.44
			v-0.83l0.83-0.62h3.61c2.08,0,3.12,1.04,3.12,3.12v7.68H95.73z M94.26,40.6c0,0.97,0.48,1.45,1.45,1.45h3.82v-3.36h-3.82
			c-0.97,0-1.45,0.48-1.45,1.45V40.6z"/>
		<path class="st0" d="M108.17,29.55l0.25-0.37h1.47l4.05,12.75h0.5l4.05-12.75h1.47l0.25,0.37l-4.53,13.96h-2.99L108.17,29.55z"/>
		<path class="st0" d="M122.25,30.76v-1.91H124v1.91H122.25z M122.29,43.51v-10.8h1.66v10.8H122.29z"/>
		<path class="st0" d="M127.11,40.39v-4.57c0-2.08,1.04-3.12,3.12-3.12h2.7c2.08,0,3.12,1.04,3.12,3.12v2.99h-7.27v1.79
			c0,0.97,0.48,1.45,1.45,1.45h5.4v0.83l-0.83,0.62h-4.57C128.15,43.51,127.11,42.47,127.11,40.39z M128.77,37.36h5.61v-1.74
			c0-0.97-0.49-1.45-1.45-1.45h-2.7c-0.97,0-1.45,0.48-1.45,1.45V37.36z"/>
		<path class="st0" d="M139.12,43.51v-9.55c0.48-0.83,1.38-1.25,2.7-1.25h2.08l0.83,0.62v0.83h-2.91c-0.47,0-0.82,0.12-1.04,0.37
			v8.97H139.12z"/>
		<path class="st0" d="M149.27,43.51c-2.09,0-3.14-1.04-3.14-3.14s1.04-3.14,3.14-3.14h3.8v-1.62c0-0.97-0.48-1.45-1.45-1.45h-4.44
			v-0.83l0.83-0.62h3.61c2.08,0,3.12,1.04,3.12,3.12v7.68H149.27z M147.8,40.6c0,0.97,0.48,1.45,1.45,1.45h3.82v-3.36h-3.82
			c-0.97,0-1.45,0.48-1.45,1.45V40.6z"/>
	</g>
	<g>
		<path class="st1" d="M21.06,67.02l0.6-2.82h7.7c0.26,0,0.44-0.05,0.57-0.15c0.12-0.1,0.21-0.28,0.27-0.55l0.43-2.01
			c0.01-0.06,0.02-0.14,0.02-0.24c0-0.26-0.19-0.38-0.55-0.38h-5.7c-0.58,0-1.01-0.12-1.27-0.37c-0.26-0.25-0.4-0.6-0.4-1.06
			c0-0.17,0.02-0.38,0.06-0.62l0.79-3.73c0.18-0.85,0.5-1.49,0.94-1.9c0.44-0.41,1.13-0.62,2.07-0.62h8.98l-0.58,2.75h-7.66
			c-0.23,0-0.39,0.05-0.49,0.15s-0.18,0.28-0.23,0.53l-0.41,1.9c-0.01,0.06-0.03,0.11-0.03,0.15c-0.01,0.04-0.01,0.08-0.01,0.13
			c0,0.21,0.16,0.32,0.47,0.32h5.78c0.6,0,1.03,0.13,1.29,0.38c0.26,0.26,0.4,0.61,0.4,1.07c0,0.19-0.02,0.38-0.06,0.6l-0.83,3.95
			c-0.19,0.85-0.5,1.49-0.94,1.9c-0.44,0.41-1.12,0.62-2.05,0.62H21.06z"/>
		<path class="st1" d="M36.72,67.02c-0.61,0-1.05-0.1-1.31-0.31c-0.26-0.21-0.4-0.53-0.4-0.97c0-0.2,0.04-0.48,0.11-0.83l1.39-6.57
			c0.16-0.73,0.42-1.26,0.78-1.6c0.36-0.34,0.94-0.51,1.72-0.51h7.3c0.54,0,0.93,0.1,1.16,0.31c0.23,0.21,0.35,0.52,0.35,0.93
			c0,0.26-0.03,0.52-0.09,0.79l-0.9,4.25h-7.19l0.36-1.79h4.35l0.32-1.45c0.01-0.07,0.02-0.16,0.02-0.28c0-0.11-0.03-0.19-0.1-0.23
			c-0.06-0.04-0.18-0.06-0.35-0.06h-4.29c-0.24,0-0.41,0.04-0.49,0.12s-0.16,0.24-0.21,0.48l-1,4.65c-0.01,0.07-0.03,0.13-0.03,0.18
			c-0.01,0.05-0.01,0.1-0.01,0.14c0,0.13,0.04,0.21,0.11,0.26c0.07,0.04,0.2,0.06,0.38,0.06h7.28l-0.51,2.45H36.72z"/>
		<path class="st1" d="M47.26,71.55l0.55-2.58h7.21c0.24,0,0.41-0.04,0.5-0.13c0.09-0.08,0.17-0.25,0.22-0.49l2.03-9.54h-4.65
			c-0.24,0-0.41,0.04-0.5,0.13c-0.09,0.08-0.16,0.24-0.2,0.47l-0.98,4.61c-0.01,0.07-0.02,0.15-0.02,0.23
			c0,0.23,0.16,0.34,0.49,0.34h3.58l-0.51,2.43h-5.12c-0.6,0-1.03-0.1-1.29-0.31c-0.26-0.21-0.39-0.53-0.39-0.97
			c0-0.2,0.04-0.48,0.11-0.83l1.39-6.57c0.16-0.73,0.42-1.26,0.78-1.6s0.93-0.51,1.7-0.51h9.18l-2.82,13.21
			c-0.16,0.73-0.42,1.26-0.78,1.6s-0.94,0.51-1.72,0.51H47.26z"/>
		<path class="st1" d="M69.67,67.02l0.23-1.15c-0.27,0.41-0.57,0.71-0.91,0.89c-0.33,0.18-0.73,0.27-1.18,0.27h-4.69
			c-0.57,0-0.99-0.1-1.27-0.3s-0.42-0.53-0.42-1c0-0.21,0.04-0.48,0.11-0.81l1.83-8.68h2.99l-1.62,7.62
			c-0.03,0.14-0.04,0.24-0.04,0.28c0,0.23,0.17,0.34,0.51,0.34h4.29c0.23,0,0.39-0.04,0.49-0.13c0.1-0.09,0.18-0.25,0.23-0.49
			l1.62-7.62h2.99l-2.28,10.8H69.67z"/>
		<path class="st1" d="M74.75,67.02l2.28-10.8h2.9l-0.26,1.17c0.27-0.41,0.57-0.71,0.91-0.9c0.33-0.18,0.74-0.28,1.21-0.28h3.14
			l-0.55,2.58h-4.31c-0.21,0-0.37,0.04-0.48,0.12s-0.19,0.24-0.25,0.48l-1.6,7.62H74.75z"/>
		<path class="st1" d="M84.48,67.02l2.28-10.8h2.99l-2.28,10.8H84.48z M87.04,54.95l0.68-3.24h3.01l-0.68,3.24H87.04z"/>
		<path class="st1" d="M91.75,67.02c-0.6,0-1.03-0.1-1.29-0.31c-0.26-0.21-0.39-0.53-0.39-0.97c0-0.2,0.04-0.48,0.11-0.83l1.39-6.57
			c0.16-0.73,0.44-1.26,0.84-1.6s0.95-0.51,1.63-0.51h5.1l-0.56,2.58h-3.56c-0.23,0-0.39,0.04-0.48,0.12
			c-0.09,0.08-0.17,0.24-0.22,0.48l-0.92,4.38c-0.03,0.14-0.04,0.23-0.04,0.28c0,0.21,0.16,0.32,0.49,0.32h4.63l2.69-12.68h3.01
			l-3.24,15.32H91.75z"/>
		<path class="st1" d="M105.02,67.02c-0.54,0-0.93-0.1-1.17-0.31c-0.24-0.21-0.36-0.52-0.36-0.93c0-0.2,0.04-0.46,0.11-0.79
			l0.53-2.56c0.08-0.4,0.18-0.73,0.3-1c0.11-0.27,0.26-0.48,0.43-0.64c0.17-0.16,0.38-0.27,0.62-0.33s0.53-0.1,0.88-0.1h5.48
			l-0.38,1.83h-3.93c-0.2,0-0.34,0.04-0.43,0.11c-0.09,0.07-0.15,0.22-0.19,0.45l-0.23,1.13c-0.01,0.07-0.03,0.13-0.03,0.17
			c-0.01,0.04-0.01,0.08-0.01,0.13c0,0.18,0.13,0.28,0.41,0.28h4.99l1.13-5.29c0.01-0.06,0.02-0.13,0.02-0.23
			c0-0.11-0.04-0.2-0.11-0.27c-0.07-0.06-0.21-0.1-0.41-0.1h-7.32l0.49-2.35h8.83c0.63,0,1.07,0.1,1.32,0.31
			c0.26,0.21,0.38,0.53,0.38,0.97c0,0.2-0.04,0.48-0.11,0.83l-1.84,8.68H105.02z"/>
		<path class="st1" d="M118.6,67.02c-0.6,0-1.03-0.1-1.29-0.31c-0.26-0.21-0.4-0.53-0.4-0.97c0-0.2,0.04-0.48,0.11-0.83l1.39-6.57
			c0.16-0.73,0.44-1.26,0.84-1.6s0.95-0.51,1.63-0.51h5.1l-0.55,2.58h-3.56c-0.23,0-0.39,0.04-0.48,0.12s-0.17,0.24-0.22,0.48
			l-0.92,4.38c-0.03,0.14-0.04,0.23-0.04,0.28c0,0.21,0.16,0.32,0.49,0.32h4.63l2.69-12.68h3.01l-3.24,15.32H118.6z"/>
		<path class="st1" d="M138.33,67.02c-0.73,0-1.25-0.13-1.56-0.38c-0.31-0.26-0.47-0.65-0.47-1.2c0-0.14,0.01-0.29,0.02-0.44
			c0.01-0.15,0.04-0.32,0.09-0.5l1.98-9.41c0.18-0.85,0.5-1.49,0.95-1.9c0.45-0.41,1.13-0.62,2.04-0.62h8.13l-0.6,2.88h-6.53
			c-0.34,0-0.57,0.05-0.69,0.16c-0.12,0.11-0.22,0.32-0.29,0.65l-1.52,7.04c-0.01,0.07-0.02,0.13-0.03,0.18
			c-0.01,0.05-0.01,0.1-0.01,0.16c0,0.16,0.05,0.27,0.15,0.34c0.1,0.07,0.28,0.11,0.55,0.11h6.57l-0.62,2.92H138.33z"/>
		<path class="st1" d="M150.39,67.02c-0.6,0-1.03-0.1-1.29-0.31c-0.26-0.21-0.4-0.53-0.4-0.97c0-0.2,0.04-0.48,0.11-0.83l1.39-6.57
			c0.16-0.73,0.42-1.26,0.78-1.6c0.36-0.34,0.93-0.51,1.7-0.51h7.34c0.63,0,1.07,0.1,1.32,0.31c0.26,0.21,0.38,0.53,0.38,0.97
			c0,0.2-0.04,0.48-0.11,0.83l-1.39,6.57c-0.16,0.73-0.42,1.26-0.78,1.6c-0.36,0.34-0.94,0.51-1.72,0.51H150.39z M158.39,59.4
			c0.03-0.14,0.04-0.23,0.04-0.26c0-0.23-0.19-0.34-0.58-0.34h-4.22c-0.23,0-0.39,0.04-0.48,0.12s-0.16,0.24-0.2,0.48l-0.92,4.4
			c-0.01,0.06-0.03,0.11-0.03,0.15c-0.01,0.04-0.01,0.08-0.01,0.13c0,0.2,0.16,0.3,0.47,0.3h4.22c0.26,0,0.44-0.04,0.55-0.13
			c0.11-0.08,0.19-0.23,0.24-0.45L158.39,59.4z"/>
		<path class="st1" d="M161.91,67.02l2.28-10.8h2.9l-0.26,1.17c0.27-0.41,0.57-0.71,0.91-0.9c0.33-0.18,0.74-0.28,1.21-0.28h3.14
			l-0.55,2.58h-4.31c-0.21,0-0.37,0.04-0.48,0.12c-0.11,0.08-0.19,0.24-0.25,0.48l-1.6,7.62H161.91z"/>
		<path class="st1" d="M175.61,67.02l0.53-2.56h3.58c0.21,0,0.37-0.04,0.46-0.12c0.09-0.08,0.17-0.24,0.22-0.48l0.94-4.37
			c0.01-0.07,0.02-0.16,0.02-0.28c0-0.13-0.03-0.22-0.1-0.27c-0.06-0.05-0.18-0.08-0.35-0.08h-4.65l-2.71,12.67h-2.99l3.26-15.32
			h9.13c0.63,0,1.07,0.11,1.32,0.32c0.26,0.21,0.38,0.54,0.38,0.98c0,0.27-0.03,0.54-0.08,0.81l-1.39,6.57
			c-0.16,0.74-0.45,1.28-0.86,1.61c-0.42,0.33-0.97,0.5-1.65,0.5H175.61z"/>
		<path class="st1" d="M186.83,67.02c-0.6,0-1.03-0.1-1.29-0.31c-0.26-0.21-0.4-0.53-0.4-0.97c0-0.2,0.04-0.48,0.11-0.83l1.39-6.57
			c0.16-0.73,0.42-1.26,0.78-1.6c0.36-0.34,0.93-0.51,1.7-0.51h7.34c0.63,0,1.07,0.1,1.32,0.31c0.26,0.21,0.38,0.53,0.38,0.97
			c0,0.2-0.04,0.48-0.11,0.83l-1.39,6.57c-0.16,0.73-0.42,1.26-0.78,1.6c-0.36,0.34-0.94,0.51-1.72,0.51H186.83z M194.84,59.4
			c0.03-0.14,0.04-0.23,0.04-0.26c0-0.23-0.19-0.34-0.58-0.34h-4.22c-0.23,0-0.39,0.04-0.48,0.12s-0.16,0.24-0.2,0.48l-0.92,4.4
			c-0.01,0.06-0.03,0.11-0.03,0.15c-0.01,0.04-0.01,0.08-0.01,0.13c0,0.2,0.16,0.3,0.47,0.3h4.22c0.26,0,0.44-0.04,0.55-0.13
			c0.11-0.08,0.19-0.23,0.24-0.45L194.84,59.4z"/>
		<path class="st1" d="M198.36,67.02l2.28-10.8h2.9l-0.26,1.17c0.27-0.41,0.57-0.71,0.91-0.9c0.33-0.18,0.74-0.28,1.21-0.28h3.14
			l-0.55,2.58h-4.31c-0.21,0-0.37,0.04-0.48,0.12c-0.11,0.08-0.19,0.24-0.25,0.48l-1.6,7.62H198.36z"/>
		<path class="st1" d="M209.49,67.02c-0.54,0-0.93-0.1-1.17-0.31c-0.24-0.21-0.36-0.52-0.36-0.93c0-0.2,0.04-0.46,0.11-0.79
			l0.53-2.56c0.08-0.4,0.18-0.73,0.3-1c0.11-0.27,0.26-0.48,0.43-0.64c0.17-0.16,0.38-0.27,0.62-0.33s0.53-0.1,0.88-0.1h5.48
			l-0.38,1.83h-3.93c-0.2,0-0.34,0.04-0.43,0.11c-0.09,0.07-0.15,0.22-0.19,0.45l-0.23,1.13c-0.01,0.07-0.03,0.13-0.03,0.17
			c-0.01,0.04-0.01,0.08-0.01,0.13c0,0.18,0.13,0.28,0.41,0.28h4.99l1.13-5.29c0.01-0.06,0.02-0.13,0.02-0.23
			c0-0.11-0.04-0.2-0.11-0.27c-0.07-0.06-0.21-0.1-0.41-0.1h-7.32l0.49-2.35h8.83c0.63,0,1.07,0.1,1.32,0.31
			c0.26,0.21,0.38,0.53,0.38,0.97c0,0.2-0.04,0.48-0.11,0.83l-1.84,8.68H209.49z"/>
		<path class="st1" d="M221.15,67.02l3.24-15.32h2.99l-3.24,15.32H221.15z"/>
	</g>
</g>
</svg>
